<svg width="42" height="38" viewBox="0 0 42 38" fill="none" xmlns="http://www.w3.org/2000/svg">
<path d="M25.8809 3.71932C26.2207 3.71932 26.4961 3.44385 26.4961 3.10408V1.24615C26.4961 0.906381 26.2207 0.63092 25.8809 0.63092C25.541 0.63092 25.2656 0.906381 25.2656 1.24615V3.10408C25.2656 3.44385 25.541 3.71932 25.8809 3.71932ZM22.8536 3.8335C23.0222 4.13259 23.4002 4.23144 23.6917 4.06705C23.9877 3.90011 24.0923 3.5249 23.9253 3.22893L23.1451 1.84589C22.9783 1.55 22.6029 1.44549 22.307 1.61234C22.011 1.77928 21.9064 2.15449 22.0734 2.45046L22.8536 3.8335ZM28.0701 4.06705C28.3609 4.23103 28.7396 4.13259 28.9082 3.8335L29.6884 2.45046C29.8554 2.15449 29.7508 1.77928 29.4548 1.61234C29.1591 1.44541 28.7836 1.55 28.6167 1.84589L27.8365 3.22893C27.6695 3.5249 27.7741 3.90011 28.0701 4.06705ZM39.8968 20.9667L34.9093 19.3048C34.6266 19.2105 34.3991 18.9978 34.2855 18.721L31.5063 11.9594C31.0307 10.8012 29.9138 10.0529 28.6608 10.0529H28.6289V8.94528C28.6289 7.43 27.3961 6.19723 25.8809 6.19723C24.3656 6.19723 23.1328 7.43 23.1328 8.94528V10.0529H18.9524C18.9514 10.0529 18.9503 10.0527 18.9492 10.0527C18.9482 10.0527 18.9471 10.0529 18.946 10.0529H3.07617C1.37993 10.0529 0 11.4328 0 13.129V17.1894C0 17.5292 0.275379 17.8047 0.615234 17.8047C0.95509 17.8047 1.23047 17.5292 1.23047 17.1894V13.129C1.23047 12.1113 2.05849 11.2833 3.07617 11.2833H18.334V24.5722H1.23047V20.0605C1.23047 19.7207 0.95509 19.4453 0.615234 19.4453C0.275379 19.4453 0 19.7207 0 20.0605V29.7404C0 31.4366 1.37993 32.8165 3.07617 32.8165H4.65216C4.95756 35.3769 7.1409 37.3691 9.78223 37.3691C12.4236 37.3691 14.6069 35.3769 14.9123 32.8165H26.1238C26.4292 35.3769 28.6126 37.3691 31.2539 37.3691C33.8952 37.3691 36.0786 35.3769 36.384 32.8165H38.9238C40.6201 32.8165 42 31.4366 42 29.7404V23.885C42 22.5584 41.1548 21.3856 39.8968 20.9667ZM9.78223 36.1386C7.61102 36.1386 5.84473 34.3723 5.84473 32.2011C5.84473 30.03 7.61102 28.2636 9.78223 28.2636C11.9534 28.2636 13.7197 30.03 13.7197 32.2011C13.7197 34.3723 11.9534 36.1386 9.78223 36.1386ZM18.334 31.5861H14.9123C14.6071 29.0255 12.4236 27.0332 9.78223 27.0332C7.1409 27.0332 4.95739 29.0255 4.65216 31.5861H3.07617C2.05849 31.5861 1.23047 30.7581 1.23047 29.7404V25.8027H18.334V31.5861ZM24.3633 8.94528C24.3633 8.10848 25.0441 7.4277 25.8809 7.4277C26.7177 7.4277 27.3984 8.10848 27.3984 8.94528V10.0529H24.3633V8.94528ZM31.2539 36.1386C29.0827 36.1386 27.3164 34.3723 27.3164 32.2011C27.3164 30.03 29.0827 28.2636 31.2539 28.2636C33.4251 28.2636 35.1914 30.03 35.1914 32.2011C35.1914 34.3723 33.4251 36.1386 31.2539 36.1386ZM40.7695 24.5722H31.3854C31.0455 24.5722 30.7702 24.8477 30.7702 25.1875C30.7702 25.5272 31.0455 25.8027 31.3854 25.8027H40.7695V29.7404C40.7695 30.7581 39.9415 31.5861 38.9238 31.5861H36.384C36.0787 29.0255 33.8952 27.0332 31.2539 27.0332C28.6126 27.0332 26.4291 29.0255 26.1238 31.5861H19.5645V25.8027H28.5143C28.8542 25.8027 29.1295 25.5272 29.1295 25.1875C29.1295 24.8477 28.8542 24.5722 28.5143 24.5722H19.5645V11.2833H28.6609C29.4127 11.2833 30.0829 11.7321 30.3682 12.4269L33.1474 19.1888C33.3973 19.7969 33.8977 20.2645 34.5203 20.4721L39.5079 22.134C40.2625 22.3854 40.7695 23.089 40.7695 23.8849V24.5722ZM29.2211 13.1562C29.064 12.7659 28.6906 12.5136 28.2699 12.5136H21.8203C21.2549 12.5136 20.7949 12.9736 20.7949 13.539V19.2402C20.7949 19.8056 21.2549 20.2656 21.8203 20.2656H30.5647C31.2726 20.2708 31.786 19.5142 31.5159 18.8573L29.2211 13.1562ZM22.0254 19.0351V13.7441H28.1313L30.2611 19.0351H22.0254ZM31.2539 30.3554C30.2362 30.3554 29.4082 31.1834 29.4082 32.2011C29.4082 33.2189 30.2362 34.0468 31.2539 34.0468C32.2716 34.0468 33.0996 33.2189 33.0996 32.2011C33.0996 31.1834 32.2716 30.3554 31.2539 30.3554ZM31.2539 32.8164C30.9146 32.8164 30.6387 32.5404 30.6387 32.2011C30.6387 31.8619 30.9146 31.5859 31.2539 31.5859C31.5932 31.5859 31.8691 31.8619 31.8691 32.2011C31.8691 32.5404 31.5932 32.8164 31.2539 32.8164ZM10.5205 12.5136H9.04395C8.4333 12.5136 7.93652 13.0104 7.93652 13.6211V16.082H5.47559C4.86495 16.082 4.36816 16.5788 4.36816 17.1894V18.666C4.36816 19.2766 4.86495 19.7734 5.47559 19.7734H7.93652V22.2343C7.93652 22.845 8.4333 23.3418 9.04395 23.3418H10.5205C11.1311 23.3418 11.6279 22.845 11.6279 22.2343V19.7734H14.0889C14.6995 19.7734 15.1963 19.2766 15.1963 18.666V17.1894C15.1963 16.5788 14.6995 16.082 14.0889 16.082H11.6279V13.6211C11.6279 13.0104 11.1311 12.5136 10.5205 12.5136ZM13.9658 17.3125V18.5429H11.2588C10.7838 18.5429 10.3975 18.9293 10.3975 19.4043V22.1113H9.16699V19.4043C9.16699 18.9293 8.78063 18.5429 8.30566 18.5429H5.59863V17.3125H8.30566C8.78063 17.3125 9.16699 16.9261 9.16699 16.4511V13.7441H10.3975V16.4511C10.3975 16.9261 10.7838 17.3125 11.2588 17.3125H13.9658ZM9.78223 30.3554C8.76455 30.3554 7.93652 31.1834 7.93652 32.2011C7.93652 33.2189 8.76455 34.0468 9.78223 34.0468C10.7999 34.0468 11.6279 33.2189 11.6279 32.2011C11.6279 31.1834 10.7999 30.3554 9.78223 30.3554ZM9.78223 32.8164C9.44295 32.8164 9.16699 32.5404 9.16699 32.2011C9.16699 31.8619 9.44295 31.5859 9.78223 31.5859C10.1215 31.5859 10.3975 31.8619 10.3975 32.2011C10.3975 32.5404 10.1215 32.8164 9.78223 32.8164Z" fill="#67D7C1"/>
</svg>
