<svg width="30" height="28" viewBox="0 0 30 28" fill="none" xmlns="http://www.w3.org/2000/svg">
<path d="M26.6021 5.32812H26.1328V4.74219C26.1328 3.77293 25.3443 2.98438 24.375 2.98438C23.4057 2.98438 22.6172 3.77293 22.6172 4.74219V5.32812H21.4453V1.92969C21.4453 0.96043 20.6568 0.171875 19.6875 0.171875H17.6083C17.2847 0.171875 17.0224 0.434258 17.0224 0.757812C17.0224 1.08137 17.2847 1.34375 17.6083 1.34375H19.6875C20.0106 1.34375 20.2734 1.6066 20.2734 1.92969V5.32812H19.1016V3.10156C19.1016 2.77801 18.8392 2.51562 18.5156 2.51562H11.4844C11.1608 2.51562 10.8984 2.77801 10.8984 3.10156V5.32812H9.72656V1.92969C9.72656 1.6066 9.98941 1.34375 10.3125 1.34375H12.3349C12.6584 1.34375 12.9208 1.08137 12.9208 0.757812C12.9208 0.434258 12.6584 0.171875 12.3349 0.171875H10.3125C9.34324 0.171875 8.55469 0.96043 8.55469 1.92969V5.32812H7.38281V4.74219C7.38281 3.77293 6.59426 2.98438 5.625 2.98438C4.65574 2.98438 3.86719 3.77293 3.86719 4.74219V5.32812H3.39785C1.52432 5.32812 0 6.85244 0 8.72598V24.4303C0 26.3038 1.52432 27.8281 3.39785 27.8281H26.6021C28.4757 27.8281 30 26.3038 30 24.4303V8.72598C30 6.85244 28.4757 5.32812 26.6021 5.32812ZM23.7891 4.74219C23.7891 4.4191 24.0519 4.15625 24.375 4.15625C24.6981 4.15625 24.9609 4.4191 24.9609 4.74219V5.32812H23.7891V4.74219ZM12.0703 3.6875H17.9297V5.32812H12.0703V3.6875ZM5.03906 4.74219C5.03906 4.4191 5.30191 4.15625 5.625 4.15625C5.94809 4.15625 6.21094 4.4191 6.21094 4.74219V5.32812H5.03906V4.74219ZM28.8281 24.4303C28.8281 25.6577 27.8296 26.6562 26.6021 26.6562H3.39785C2.17043 26.6562 1.17188 25.6577 1.17188 24.4303V8.72598C1.17188 7.49856 2.17043 6.5 3.39785 6.5H26.6021C27.8296 6.5 28.8281 7.49856 28.8281 8.72598V24.4303Z" fill="#67D7C1"/>
<path d="M15 10.4418C11.6164 10.4418 8.86365 13.1945 8.86365 16.5781C8.86365 19.9617 11.6164 22.7145 15 22.7145C18.3836 22.7145 21.1364 19.9617 21.1364 16.5781C21.1364 13.1946 18.3836 10.4418 15 10.4418ZM15 21.5426C12.2626 21.5426 10.0355 19.3156 10.0355 16.5781C10.0355 13.8407 12.2626 11.6136 15 11.6136C17.7374 11.6136 19.9645 13.8407 19.9645 16.5781C19.9645 19.3156 17.7374 21.5426 15 21.5426Z" fill="#67D7C1"/>
<path d="M17.1667 14.8203H16.7652V14.4188C16.7652 13.8072 16.2677 13.3097 15.6561 13.3097H14.3586C13.747 13.3097 13.2495 13.8072 13.2495 14.4188V14.8203H12.848C12.2364 14.8203 11.7389 15.3178 11.7389 15.9294V17.2269C11.7389 17.8385 12.2364 18.336 12.848 18.336H13.2495V18.7375C13.2495 19.3491 13.747 19.8466 14.3586 19.8466H15.6561C16.2677 19.8466 16.7652 19.3491 16.7652 18.7375V18.3359H17.1667C17.7783 18.3359 18.2758 17.8384 18.2758 17.2269V15.9294C18.2758 15.3178 17.7783 14.8203 17.1667 14.8203ZM17.1039 17.164H16.1793C15.8557 17.164 15.5934 17.4264 15.5934 17.75V18.6746H14.4215V17.75C14.4215 17.4264 14.1591 17.164 13.8356 17.164H12.9109V15.9922H13.8356C14.1591 15.9922 14.4215 15.7298 14.4215 15.4062V14.4816H15.5934V15.4062C15.5934 15.7298 15.8557 15.9922 16.1793 15.9922H17.1039V17.164Z" fill="#67D7C1"/>
</svg>
