<svg width="32" height="40" viewBox="0 0 32 40" fill="none" xmlns="http://www.w3.org/2000/svg">
<path d="M9.62865 14.8378C9.55573 14.8378 9.48357 14.8231 9.4165 14.7945C9.34943 14.7659 9.28884 14.724 9.23838 14.6713C8.69784 14.1081 6.93244 12.0946 6.85135 9.83405C6.84655 9.6988 6.89265 9.56668 6.98054 9.46377C7.04529 9.38573 7.0852 9.2901 7.09514 9.18918C7.09135 9.16053 7.04108 9.12269 7.02271 9.10756C6.94995 9.05496 6.89144 8.98506 6.85247 8.90418C6.81349 8.82331 6.79528 8.734 6.79946 8.64432C6.81948 8.23778 6.98864 7.85289 7.2746 7.56323C7.2199 7.48054 7.159 7.40212 7.09243 7.32864C7.01142 7.24204 6.96112 7.13121 6.9493 7.01322C6.93748 6.89522 6.9648 6.77661 7.02703 6.67567L7.20649 6.38702C7.27081 5.89296 7.57135 4.22486 8.77406 3.41026C9.08974 3.20327 9.44389 3.06198 9.81537 2.99484C10.1868 2.92769 10.568 2.93606 10.9362 3.01945C11.2253 2.33872 11.7058 1.75659 12.3195 1.34378C13.4432 0.590803 14.9557 0.397289 16.8184 0.767559C21.5714 1.71837 22.6951 3.44756 23.2973 4.57621C23.7116 4.74669 24.0539 5.05559 24.2659 5.45026C24.4153 5.76164 24.4562 6.11403 24.3822 6.45134C24.7575 6.8334 25.0166 7.31423 25.1292 7.83783C25.3205 8.67783 25.2135 12.5524 22.7054 14.5578C22.6206 14.6255 22.5174 14.666 22.4093 14.6743C22.3011 14.6825 22.193 14.658 22.099 14.6039C22.0049 14.5499 21.9293 14.4688 21.882 14.3712C21.8347 14.2736 21.8178 14.1641 21.8335 14.0567C21.8649 13.8441 21.8905 13.6348 21.9103 13.4286C21.9495 13.0065 21.9009 12.5809 21.7676 12.1784C21.6343 11.776 21.4191 11.4055 21.1357 11.0903C20.8522 10.775 20.5066 10.5219 20.1205 10.3467C19.7345 10.1715 19.3163 10.0781 18.8924 10.0724C17.45 10.0309 16.0387 9.64343 14.7773 8.94269L14.6481 8.87459C14.1825 8.63137 13.6617 8.51317 13.1367 8.53156C12.6117 8.54994 12.1005 8.70427 11.653 8.97945C11.1979 9.25358 10.822 9.64122 10.5618 10.1044C10.3017 10.5676 10.1664 11.0904 10.1692 11.6216V14.2973C10.1692 14.4052 10.1368 14.5107 10.0763 14.6001C10.0158 14.6895 9.92993 14.7588 9.82973 14.7989C9.76586 14.8248 9.69756 14.838 9.62865 14.8378ZM7.94216 9.96864C8.08308 10.9867 8.47708 11.9531 9.08811 12.7795V11.6216C9.08705 10.9089 9.26928 10.2079 9.61728 9.58598C9.96529 8.96403 10.4674 8.44201 11.0753 8.07008C11.6833 7.69815 12.3766 7.4888 13.0888 7.46213C13.801 7.43547 14.5081 7.59239 15.1422 7.91783L15.2849 7.99296C16.3946 8.61177 17.6365 8.95543 18.9065 8.99513C19.9155 9.00892 20.885 9.3896 21.6339 10.066C22.3827 10.7425 22.8597 11.6684 22.9757 12.6708C23.8201 11.2894 24.203 9.67512 24.0692 8.06161C23.9673 7.66409 23.7442 7.30816 23.4308 7.04323C23.3409 6.97017 23.2767 6.87031 23.2476 6.7582C23.2184 6.64609 23.2258 6.5276 23.2687 6.41999C23.3103 6.34555 23.3343 6.26256 23.3389 6.17739C23.3435 6.09222 23.3285 6.00712 23.2951 5.92864C23.1688 5.73942 22.9815 5.59921 22.7643 5.53134C22.694 5.51094 22.6286 5.47646 22.572 5.43C22.5154 5.38354 22.4688 5.32607 22.4351 5.26107C21.9081 4.25242 21.1141 2.73188 16.6087 1.8308C15.0411 1.51945 13.8011 1.65729 12.9287 2.24378C12.3899 2.6029 11.9984 3.14401 11.8259 3.7681C11.8113 3.84254 11.7812 3.91306 11.7375 3.97508C11.6938 4.0371 11.6375 4.08923 11.5724 4.12808C11.5072 4.16693 11.4346 4.19163 11.3593 4.20058C11.284 4.20952 11.2076 4.20251 11.1351 4.17999C10.8542 4.06374 10.5501 4.01436 10.2468 4.03575C9.94356 4.05714 9.6494 4.14871 9.38757 4.30323C8.42271 4.95188 8.27243 6.59729 8.27081 6.61405C8.26361 6.69936 8.23639 6.78177 8.19135 6.85459L8.14973 6.92161C8.35447 7.17941 8.45012 7.50713 8.41622 7.83459C8.39233 7.95259 8.34064 8.06319 8.26543 8.1572C8.19022 8.25121 8.09367 8.32592 7.98379 8.37513C7.95695 8.40641 7.93754 8.44338 7.92703 8.48323C8.06082 8.64853 8.14515 8.84828 8.17027 9.05945C8.19693 9.37941 8.11671 9.69917 7.94216 9.96864ZM7.51352 7.4054L7.49784 7.41351L7.51352 7.4054Z" fill="#67D7C1"/>
<path d="M16.0141 23.6287C13.8724 23.5708 12.4308 22.0476 11.0368 20.5746C10.8876 20.4168 10.7384 20.2589 10.5887 20.1038C9.5845 19.0284 9.04561 17.5999 9.08919 16.1292V14.1373C9.08919 13.9939 9.14614 13.8565 9.24751 13.7551C9.34888 13.6537 9.48637 13.5968 9.62973 13.5968C9.77309 13.5968 9.91058 13.6537 10.012 13.7551C10.1133 13.8565 10.1703 13.9939 10.1703 14.1373V16.1681C10.1444 17.3438 10.5733 18.4841 11.3676 19.3514C11.5195 19.5092 11.6708 19.6692 11.8222 19.8292C13.1195 21.2027 14.3497 22.5 16.0141 22.546C17.6487 22.5 18.8789 21.2027 20.1762 19.8287C20.3276 19.6692 20.4789 19.5092 20.6303 19.3514C21.4183 18.4937 21.8478 17.3667 21.8303 16.2022V14.1351C21.8303 13.9918 21.8872 13.8543 21.9886 13.7529C22.09 13.6516 22.2275 13.5946 22.3708 13.5946C22.5142 13.5946 22.6517 13.6516 22.753 13.7529C22.8544 13.8543 22.9114 13.9918 22.9114 14.1351V16.166C22.9457 17.6238 22.4068 19.0369 21.4103 20.1016C21.2606 20.2568 21.1119 20.4146 20.9627 20.5719C19.5676 22.0476 18.1265 23.5708 16.0141 23.6287Z" fill="#67D7C1"/>
<path d="M9.38756 16.8919C8.28378 16.8919 7.38757 15.8108 7.38757 14.4832C7.38091 14.1226 7.44904 13.7645 7.58766 13.4316C7.72628 13.0986 7.93238 12.798 8.19297 12.5486C8.29992 12.4531 8.44044 12.4039 8.58363 12.412C8.72681 12.42 8.86093 12.4847 8.95648 12.5916C9.05203 12.6986 9.10118 12.8391 9.09313 12.9823C9.08507 13.1254 9.02046 13.2596 8.91351 13.3551C8.76586 13.5025 8.65016 13.6788 8.57362 13.8728C8.49708 14.0669 8.46135 14.2747 8.46865 14.4832C8.46865 15.253 8.97675 15.8886 9.49135 15.8021C9.63277 15.7784 9.77783 15.8118 9.89461 15.8951C10.0114 15.9783 10.0903 16.1045 10.114 16.2459C10.1378 16.3874 10.1043 16.5324 10.0211 16.6492C9.9379 16.766 9.81169 16.8449 9.67027 16.8686C9.57683 16.8841 9.48228 16.8919 9.38756 16.8919Z" fill="#67D7C1"/>
<path d="M22.6108 16.8919C22.5164 16.8919 22.4222 16.8839 22.3292 16.8681C22.1889 16.8431 22.0641 16.7637 21.9821 16.6472C21.9 16.5307 21.8673 16.3865 21.891 16.2459C21.9147 16.1054 21.993 15.9799 22.1088 15.8968C22.2246 15.8137 22.3685 15.7797 22.5092 15.8021C23.0211 15.8892 23.5314 15.253 23.5314 14.4832C23.5388 14.2748 23.5031 14.067 23.4267 13.8729C23.3502 13.6788 23.2346 13.5025 23.087 13.3551C23.0341 13.3078 22.991 13.2505 22.9601 13.1866C22.9293 13.1226 22.9114 13.0532 22.9074 12.9823C22.8994 12.8391 22.9485 12.6986 23.0441 12.5916C23.1396 12.4847 23.2737 12.42 23.4169 12.412C23.5601 12.4039 23.7006 12.4531 23.8076 12.5486C24.068 12.7981 24.2739 13.0987 24.4125 13.4317C24.551 13.7646 24.6191 14.1227 24.6124 14.4832C24.6124 15.8113 23.7146 16.8919 22.6108 16.8919Z" fill="#67D7C1"/>
<path d="M13.6708 29.1622C13.6551 29.1622 13.6389 29.1622 13.6227 29.1622C13.5407 29.1548 13.4614 29.1288 13.3909 29.0861C13.3205 29.0433 13.2607 28.9851 13.2162 28.9157L10.7632 25.0919C10.7043 25.0001 10.6745 24.8925 10.6779 24.7833C10.6813 24.6742 10.7176 24.5687 10.7822 24.4806L11.7011 23.2309C11.7833 23.1187 11.9055 23.0425 12.0424 23.0181C12.1793 22.9938 12.3204 23.0231 12.4362 23.1001L16.3006 25.6714C16.3651 25.715 16.4195 25.7721 16.46 25.8387C16.5004 25.9054 16.526 25.9799 16.5349 26.0574C16.5439 26.1348 16.536 26.2132 16.5117 26.2873C16.4875 26.3614 16.4476 26.4294 16.3946 26.4865L14.0665 28.9892C14.016 29.0437 13.9548 29.0872 13.8867 29.117C13.8186 29.1467 13.7451 29.1621 13.6708 29.1622ZM11.8735 24.8184L13.7497 27.7433L15.1703 26.2163L12.2654 24.2838L11.8735 24.8184Z" fill="#67D7C1"/>
<path d="M18.327 29.1622C18.2528 29.1622 18.1793 29.1468 18.1112 29.1172C18.0432 29.0875 17.9819 29.0441 17.9314 28.9897L15.6038 26.4865C15.5504 26.4292 15.5102 26.3609 15.4858 26.2865C15.4614 26.2121 15.4535 26.1333 15.4626 26.0555C15.4717 25.9777 15.4976 25.9028 15.5385 25.836C15.5794 25.7692 15.6343 25.7121 15.6995 25.6687L19.5638 23.0973C19.6796 23.0204 19.8207 22.991 19.9576 23.0154C20.0945 23.0397 20.2167 23.1159 20.2989 23.2281L21.2179 24.4778C21.2825 24.5659 21.3189 24.6714 21.3224 24.7805C21.3258 24.8896 21.2962 24.9973 21.2373 25.0892L18.7822 28.9135C18.7377 28.9829 18.6779 29.0411 18.6075 29.0839C18.537 29.1266 18.4577 29.1526 18.3757 29.16C18.3595 29.1611 18.3433 29.1622 18.327 29.1622ZM16.8281 26.2162L18.2487 27.7427L20.1249 24.8178L19.733 24.2838L16.8281 26.2162Z" fill="#67D7C1"/>
<path d="M29.1773 39.6487H2.28217C1.75174 39.6487 1.24303 39.438 0.867958 39.0629C0.492885 38.6878 0.282172 38.1791 0.282172 37.6487V32.8254C0.276797 31.305 0.761229 29.8233 1.66373 28.5997C2.56623 27.3761 3.8388 26.4758 5.29298 26.0319L11.1622 24.3152C11.2998 24.2749 11.4478 24.291 11.5735 24.3599C11.6993 24.4288 11.7925 24.5448 11.8327 24.6825C11.8729 24.8201 11.8568 24.968 11.7879 25.0938C11.7191 25.2195 11.603 25.3128 11.4654 25.353L5.60542 27.067C4.374 27.4445 3.29672 28.2082 2.53286 29.2452C1.769 30.2822 1.35911 31.5375 1.36379 32.8254V37.6487C1.36379 37.8924 1.46061 38.1261 1.63294 38.2984C1.80527 38.4708 2.039 38.5676 2.28271 38.5676H29.1773C29.421 38.5676 29.6548 38.4708 29.8271 38.2984C29.9994 38.1261 30.0962 37.8924 30.0962 37.6487V32.2849C30.1008 30.9955 29.69 29.739 28.9246 28.7014C28.1591 27.6639 27.0798 26.9005 25.8465 26.5243L20.6643 25.3892C20.5243 25.3585 20.4021 25.2735 20.3248 25.1527C20.2474 25.032 20.2212 24.8855 20.2519 24.7454C20.2826 24.6054 20.3676 24.4832 20.4884 24.4059C20.6091 24.3285 20.7556 24.3023 20.8957 24.333L26.1216 25.4773C27.5851 25.9154 28.8679 26.8146 29.7788 28.0409C30.6898 29.2672 31.1801 30.7551 31.1768 32.2827V37.6487C31.1768 38.179 30.9661 38.6876 30.5912 39.0627C30.2162 39.4377 29.7076 39.6485 29.1773 39.6487Z" fill="#67D7C1"/>
<path d="M16 26.6573C15.8934 26.6575 15.7892 26.6261 15.7005 26.567L11.8378 24C11.7519 23.9428 11.6842 23.8622 11.6426 23.7678C11.6011 23.6733 11.5874 23.5689 11.6032 23.467L11.9584 21.1967C11.9686 21.1259 11.9927 21.0578 12.0294 20.9964C12.066 20.935 12.1145 20.8815 12.172 20.839C12.2296 20.7965 12.2949 20.7658 12.3644 20.7487C12.4338 20.7316 12.506 20.7285 12.5767 20.7395C12.6473 20.7505 12.7151 20.7755 12.7761 20.8129C12.837 20.8503 12.89 20.8994 12.9318 20.9574C12.9737 21.0154 13.0036 21.0812 13.0198 21.1508C13.0361 21.2205 13.0383 21.2927 13.0265 21.3632L12.7243 23.2945L16 25.4681L19.2778 23.2897L18.973 21.3589C18.9611 21.2883 18.9634 21.2161 18.9796 21.1465C18.9959 21.0768 19.0258 21.0111 19.0676 20.9531C19.1095 20.8951 19.1624 20.846 19.2234 20.8086C19.2844 20.7712 19.3521 20.7462 19.4228 20.7352C19.4935 20.7242 19.5656 20.7273 19.6351 20.7444C19.7045 20.7615 19.7699 20.7921 19.8274 20.8347C19.8849 20.8772 19.9334 20.9307 19.9701 20.9921C20.0068 21.0535 20.0309 21.1216 20.0411 21.1924L20.3962 23.4627C20.4122 23.5647 20.3986 23.6692 20.357 23.7637C20.3154 23.8583 20.2476 23.9389 20.1616 23.9962L16.2962 26.5643C16.2087 26.6236 16.1057 26.6559 16 26.6573Z" fill="#67D7C1"/>
<path d="M27.2378 34.6053C27.1977 34.606 27.1577 34.6024 27.1184 34.5945L26.2384 34.3951C26.1678 34.3808 26.1007 34.3525 26.0412 34.3119C25.9817 34.2714 25.9309 34.2193 25.8918 34.1588C25.8526 34.0983 25.826 34.0306 25.8134 33.9597C25.8008 33.8888 25.8026 33.8161 25.8185 33.7458C25.8344 33.6755 25.8642 33.6092 25.9062 33.5506C25.9481 33.492 26.0013 33.4424 26.0627 33.4047C26.1241 33.367 26.1924 33.342 26.2636 33.331C26.3348 33.3201 26.4074 33.3235 26.4773 33.341L26.8297 33.4205L27.2157 31.7178C27.2797 31.4595 27.2915 31.1911 27.2504 30.9282C27.2094 30.6653 27.1163 30.4133 26.9766 30.1868C26.837 29.9604 26.6535 29.7641 26.437 29.6094C26.2205 29.4547 25.9753 29.3448 25.7158 29.2861C25.4563 29.2274 25.1877 29.221 24.9257 29.2674C24.6637 29.3138 24.4136 29.412 24.19 29.5562C23.9665 29.7005 23.7739 29.8879 23.6237 30.1075C23.4735 30.3271 23.3686 30.5744 23.3151 30.8351L22.9297 32.5372L23.2822 32.6172C23.422 32.6489 23.5436 32.7347 23.6201 32.856C23.6966 32.9772 23.7219 33.1239 23.6903 33.2637C23.6587 33.4036 23.5728 33.5251 23.4515 33.6017C23.3303 33.6782 23.1836 33.7034 23.0438 33.6718L22.1622 33.4702C22.0927 33.4545 22.0271 33.4253 21.969 33.3841C21.9109 33.343 21.8615 33.2908 21.8236 33.2306C21.7858 33.1703 21.7602 33.1031 21.7483 33.0329C21.7365 32.9628 21.7386 32.8909 21.7546 32.8216L22.2595 30.5913C22.3489 30.1966 22.5153 29.8234 22.749 29.493C22.9827 29.1627 23.2792 28.8815 23.6215 28.6657C23.9639 28.4499 24.3454 28.3036 24.7442 28.2353C25.1431 28.1669 25.5515 28.1778 25.9462 28.2672C26.3409 28.3567 26.7141 28.5231 27.0445 28.7568C27.3749 28.9905 27.656 29.2869 27.8718 29.6293C28.0876 29.9716 28.2339 30.3531 28.3022 30.752C28.3706 31.1509 28.3597 31.5593 28.2703 31.954L27.7654 34.1837C27.7384 34.3034 27.6716 34.4103 27.5758 34.4869C27.48 34.5635 27.361 34.6053 27.2384 34.6053H27.2378Z" fill="#67D7C1"/>
<path d="M5.79406 30.1838C5.67111 30.1836 5.5519 30.1415 5.45609 30.0645C5.36028 29.9874 5.29359 29.88 5.26703 29.76L4.60704 26.7762C4.5917 26.7069 4.59017 26.6352 4.60253 26.5653C4.61489 26.4954 4.6409 26.4286 4.67908 26.3688C4.71725 26.3089 4.76684 26.2571 4.82501 26.2165C4.88318 26.1758 4.9488 26.1469 5.01812 26.1316C5.08743 26.1163 5.15909 26.1147 5.229 26.1271C5.2989 26.1395 5.36569 26.1655 5.42555 26.2036C5.4854 26.2418 5.53716 26.2914 5.57785 26.3496C5.61854 26.4077 5.64737 26.4734 5.66271 26.5427L6.32271 29.5265C6.3536 29.6664 6.32762 29.813 6.25047 29.9338C6.17333 30.0546 6.05135 30.1399 5.91136 30.1708C5.87288 30.1796 5.83352 30.1839 5.79406 30.1838Z" fill="#67D7C1"/>
<path d="M25.8546 29.3406C25.8155 29.3404 25.7766 29.3362 25.7384 29.3281C25.669 29.3129 25.6033 29.2842 25.5451 29.2437C25.4868 29.2031 25.4371 29.1515 25.3988 29.0917C25.3605 29.0319 25.3344 28.9651 25.3219 28.8953C25.3094 28.8254 25.3107 28.7537 25.3259 28.6843L25.9043 26.0411C25.935 25.901 26.0201 25.7789 26.1408 25.7016C26.2615 25.6242 26.408 25.598 26.5481 25.6287C26.6882 25.6594 26.8103 25.7444 26.8876 25.8651C26.965 25.9859 26.9912 26.1324 26.9605 26.2725L26.3822 28.9157C26.3558 29.036 26.2891 29.1437 26.1932 29.221C26.0972 29.2983 25.9778 29.3405 25.8546 29.3406Z" fill="#67D7C1"/>
<path d="M6.57406 33.9886C6.07498 33.9887 5.58709 33.8408 5.17207 33.5636C4.75705 33.2864 4.43356 32.8924 4.2425 32.4314C4.05144 31.9703 4.00139 31.4629 4.09869 30.9735C4.19599 30.484 4.43626 30.0343 4.78912 29.6814C5.14198 29.3284 5.59158 29.0881 6.08105 28.9907C6.57053 28.8933 7.0779 28.9432 7.53899 29.1342C8.00009 29.3251 8.3942 29.6485 8.67148 30.0635C8.94876 30.4784 9.09676 30.9663 9.09676 31.4654C9.09619 32.1343 8.83023 32.7757 8.35728 33.2488C7.88432 33.7218 7.24299 33.9879 6.57406 33.9886ZM6.57406 30.0238C6.28878 30.0237 6.00987 30.1082 5.77263 30.2666C5.53538 30.425 5.35045 30.6502 5.24123 30.9138C5.13201 31.1773 5.10341 31.4673 5.15904 31.7471C5.21467 32.0269 5.35203 32.284 5.55375 32.4857C5.75547 32.6874 6.01249 32.8248 6.2923 32.8804C6.5721 32.936 6.86211 32.9074 7.12566 32.7982C7.3892 32.689 7.61443 32.504 7.77285 32.2668C7.93128 32.0296 8.01578 31.7507 8.01568 31.4654C8.01525 31.0832 7.86323 30.7167 7.59296 30.4465C7.3227 30.1762 6.95627 30.0242 6.57406 30.0238Z" fill="#67D7C1"/>
<path d="M6.57406 32.5529C6.35893 32.5531 6.14861 32.4894 5.96969 32.3699C5.79077 32.2505 5.65129 32.0807 5.56889 31.8819C5.48649 31.6832 5.46488 31.4645 5.50678 31.2535C5.54868 31.0425 5.65222 30.8487 5.8043 30.6965C5.95637 30.5444 6.15016 30.4408 6.36114 30.3987C6.57212 30.3567 6.79083 30.3782 6.98959 30.4605C7.18834 30.5428 7.35823 30.6822 7.47776 30.8611C7.59729 31.04 7.66108 31.2503 7.66108 31.4654C7.6608 31.7536 7.5462 32.03 7.34242 32.2339C7.13864 32.4378 6.86232 32.5525 6.57406 32.5529ZM6.57406 30.9189C6.46582 30.9188 6.35998 30.9508 6.26994 31.0109C6.1799 31.0709 6.1097 31.1564 6.06823 31.2563C6.02676 31.3563 6.01588 31.4663 6.03697 31.5725C6.05806 31.6787 6.11017 31.7762 6.18671 31.8527C6.26324 31.9293 6.36076 31.9814 6.46693 32.0025C6.57309 32.0236 6.68313 32.0127 6.7831 31.9712C6.88308 31.9297 6.96851 31.8595 7.02858 31.7695C7.08864 31.6795 7.12065 31.5736 7.12054 31.4654C7.1204 31.3205 7.06278 31.1816 6.96032 31.0791C6.85787 30.9767 6.71895 30.919 6.57406 30.9189Z" fill="#67D7C1"/>
</svg>
